<svg width="64" height="64" viewBox="0 0 64 64" fill="none" xmlns="http://www.w3.org/2000/svg">
<path d="M0 0C21.12 0 42.24 0 64 0C64 21.12 64 42.24 64 64C42.88 64 21.76 64 0 64C0 42.88 0 21.76 0 0ZM28.655 17.1023C28.3874 17.1302 28.1199 17.1473 27.8514 17.1638C26.0014 17.2821 24.1577 17.6947 22.375 18.1875C22.2916 18.2093 22.2082 18.231 22.1248 18.2527C21.0546 18.5343 19.9959 18.8875 18.9805 19.3281C18.9357 19.3472 18.891 19.3662 18.8448 19.3858C18.5729 19.5085 18.3894 19.6493 18.1875 19.875C18.1566 19.9059 18.1566 19.9059 18.125 19.9375C18.1105 20.0913 18.1 20.2437 18.0921 20.3979C18.0881 20.4702 18.0881 20.4702 18.0841 20.544C18.0755 20.7049 18.0674 20.8659 18.0596 21.0269C18.0568 21.0825 18.054 21.1382 18.0512 21.1955C17.9935 22.3767 17.9806 23.5563 17.9837 24.7387C17.9844 25.0154 17.984 25.292 17.9833 25.5687C17.9808 26.7079 17.9971 27.8437 18.0583 28.9814C18.061 29.0299 18.0636 29.0784 18.0663 29.1284C18.1662 30.9412 18.2947 32.8505 18.9375 34.5625C18.9551 34.6108 18.9728 34.659 18.9909 34.7087C19.5421 36.2048 20.356 37.4923 21.4634 38.6436C21.5925 38.7785 21.7131 38.9149 21.832 39.0586C22.3268 39.6288 22.9197 40.1228 23.4883 40.6172C23.5241 40.6483 23.5599 40.6795 23.5968 40.7116C24.6338 41.6045 25.7373 42.4279 26.875 43.1875C26.9665 43.249 27.058 43.3105 27.1494 43.3721C27.3866 43.5313 27.6245 43.6893 27.8628 43.8468C27.9506 43.9049 28.0383 43.963 28.126 44.0214C28.8492 44.5023 29.5938 44.9461 30.343 45.385C30.5897 45.5296 30.8345 45.6763 31.0769 45.8279C31.1248 45.8574 31.1726 45.8869 31.2219 45.9173C31.3074 45.9702 31.3923 46.0239 31.4766 46.0786C31.7517 46.2471 31.996 46.3114 32.3125 46.25C32.5059 46.1797 32.6805 46.0855 32.8594 45.9844C32.9106 45.9564 32.9619 45.9284 33.0147 45.8995C33.5482 45.6048 34.071 45.2917 34.5903 44.9729C34.7506 44.8746 34.9114 44.7771 35.0723 44.6797C35.8795 44.1882 36.6615 43.6643 37.4375 43.125C37.508 43.0763 37.508 43.0763 37.58 43.0267C38.5947 42.3262 39.5861 41.5892 40.5163 40.7793C40.6008 40.7079 40.6867 40.6383 40.7733 40.5695C41.2432 40.1944 41.6706 39.7892 42.0938 39.3633C42.1281 39.3289 42.1625 39.2944 42.1979 39.2589C42.6935 38.7612 43.1522 38.2594 43.5625 37.6875C43.6343 37.5965 43.6343 37.5965 43.7075 37.5037C44.5034 36.4906 44.9946 35.3462 45.375 34.125C45.3895 34.079 45.4041 34.0329 45.419 33.9855C46.1787 31.5471 46.0925 28.8721 46.0827 26.3469C46.0818 26.0579 46.0822 25.7689 46.0825 25.4799C46.0836 24.0992 46.0743 22.7183 46.0248 21.3384C46.0205 21.2154 46.0167 21.0925 46.0134 20.9695C46.0087 20.8011 46.002 20.6328 45.9947 20.4645C45.9931 20.3907 45.9931 20.3907 45.9915 20.3155C45.9782 20.0651 45.9471 19.9492 45.7857 19.7533C45.6473 19.6428 45.5301 19.5608 45.3694 19.489C45.297 19.4563 45.297 19.4563 45.2231 19.4229C45.1455 19.3895 45.1455 19.3895 45.0664 19.3555C45.0115 19.3314 44.9566 19.3074 44.9001 19.2826C43.8356 18.8238 42.7494 18.4769 41.6305 18.1779C41.4226 18.1209 41.2161 18.0599 41.0093 17.999C40.5649 17.8716 40.1177 17.7755 39.6641 17.6875C39.6031 17.6756 39.6031 17.6756 39.5409 17.6635C39.3331 17.6229 39.1252 17.5829 38.9172 17.5435C38.7769 17.5169 38.6367 17.4901 38.4966 17.4628C37.6293 17.2953 36.7574 17.199 35.8789 17.1133C35.8246 17.108 35.7704 17.1027 35.7145 17.0972C34.5059 16.9804 33.3082 16.9229 32.0938 16.9219C31.9932 16.9217 31.9932 16.9217 31.8906 16.9216C30.802 16.9215 29.736 16.9802 28.655 17.1023Z" fill="#285BB4"/>
<path d="M31.165 16.927C31.2271 16.9267 31.2891 16.9265 31.353 16.9262C31.553 16.9256 31.7531 16.9256 31.9531 16.9258C32.0216 16.9258 32.0901 16.9258 32.1607 16.9258C33.2587 16.9271 34.3438 16.9601 35.4375 17.0625C35.5077 17.0685 35.578 17.0746 35.6504 17.0808C37.8436 17.2707 40.0863 17.6656 42.1837 18.3351C42.3632 18.3907 42.5448 18.4369 42.7266 18.4844C43.6432 18.745 44.5524 19.1047 45.4062 19.5273C45.4466 19.5472 45.487 19.567 45.5285 19.5875C45.7241 19.6883 45.8125 19.7501 45.9375 19.9375C45.9569 20.1107 45.9693 20.2785 45.9764 20.4523C45.9789 20.5052 45.9815 20.5581 45.9841 20.6126C45.9923 20.7898 45.9995 20.967 46.0066 21.1443C46.0092 21.2061 46.0118 21.2678 46.0145 21.3315C46.0751 22.7859 46.0838 24.2403 46.0822 25.6958C46.0819 25.9855 46.0824 26.2753 46.0835 26.565C46.0901 28.2826 46.061 29.9791 45.875 31.6875C45.8681 31.7539 45.8611 31.8204 45.854 31.8888C45.4896 35.3605 43.5686 38.3173 40.8906 40.4922C40.8109 40.5544 40.8109 40.5544 40.7295 40.6179C40.5696 40.7444 40.4169 40.8762 40.264 41.0109C39.7032 41.503 39.1056 41.94 38.5 42.375C38.4583 42.4052 38.4165 42.4355 38.3735 42.4666C36.6463 43.7171 34.8459 44.8704 32.9844 45.9102C32.9238 45.9448 32.8631 45.9795 32.8007 46.0152C32.1859 46.3511 32.1859 46.3511 31.8125 46.25C31.5719 46.1434 31.3522 46.0099 31.1289 45.8711C31.0641 45.832 30.9992 45.7928 30.9324 45.7525C30.7952 45.6696 30.6582 45.5863 30.5215 45.5025C30.3153 45.3767 30.1079 45.2531 29.8999 45.1301C29.2276 44.7321 28.5635 44.3269 27.9191 43.885C27.77 43.7836 27.6193 43.6845 27.4688 43.5853C26.2199 42.76 24.9989 41.8825 23.8657 40.9031C23.6895 40.7517 23.5095 40.6061 23.3281 40.4609C23.0575 40.241 22.8118 40.0062 22.5688 39.7563C22.45 39.6375 22.3281 39.5295 22.1992 39.4219C21.5504 38.8619 21.014 38.1818 20.5 37.5C20.4728 37.4645 20.4455 37.429 20.4174 37.3924C19.7562 36.5272 19.3318 35.5724 18.9375 34.5625C18.9129 34.5006 18.9129 34.5006 18.8877 34.4375C18.7771 34.1534 18.6936 33.8684 18.6289 33.5703C18.6185 33.5224 18.6081 33.4745 18.5974 33.4252C18.3794 32.3852 18.2427 31.3346 18.1445 30.2773C18.1371 30.1984 18.1296 30.1195 18.1219 30.0382C17.989 28.5163 17.9882 26.9903 17.9884 25.4639C17.9884 25.237 17.988 25.0102 17.9871 24.7833C17.9827 23.5904 17.9889 22.3979 18.0372 21.2058C18.0415 21.0958 18.0453 20.9859 18.0487 20.8759C18.0535 20.724 18.0602 20.5723 18.0676 20.4205C18.0686 20.376 18.0697 20.3315 18.0708 20.2856C18.085 20.0453 18.1204 19.943 18.2771 19.7561C20.0475 18.3084 23.2763 17.881 25.4492 17.4844C25.4918 17.4766 25.5344 17.4688 25.5782 17.4607C26.5984 17.2748 27.6112 17.1622 28.6445 17.0898C28.8101 17.078 28.9757 17.0661 29.1413 17.0542C29.2432 17.0468 29.3451 17.0396 29.4471 17.0325C29.6927 17.015 29.9371 16.9936 30.1819 16.9667C30.51 16.9333 30.8354 16.9274 31.165 16.927ZM19.375 21.1875C19.3032 22.4112 19.2987 23.6344 19.2975 24.8598C19.2972 25.09 19.2963 25.3203 19.2949 25.5506C19.2686 29.9052 19.6879 33.8971 22.8658 37.1174C24.1082 38.3668 25.579 39.3739 27.0625 40.3125C27.1159 40.3463 27.1694 40.3802 27.2244 40.4151C28.3339 41.1154 29.4666 41.7677 30.627 42.3797C30.7186 42.4282 30.81 42.4771 30.9011 42.5263C31.5691 42.9186 31.5691 42.9186 32.3125 42.9375C32.5426 42.8575 32.7559 42.7553 32.9727 42.6445C33.0347 42.6138 33.0967 42.583 33.1606 42.5514C35.3825 41.4395 37.5297 40.142 39.5 38.625C39.5514 38.5859 39.5514 38.5859 39.6039 38.546C40.161 38.1221 40.6836 37.6734 41.1875 37.1875C41.228 37.1487 41.2685 37.1099 41.3102 37.0699C42.9988 35.4451 44.0641 33.5796 44.4375 31.25C44.4473 31.1908 44.4571 31.1315 44.4673 31.0705C44.9957 27.8166 44.8666 24.4698 44.75 21.1875C44.483 21.3059 44.3466 21.489 44.1758 21.7188C43.7019 22.3506 43.1592 22.9146 42.6016 23.4727C42.5473 23.5277 42.493 23.5828 42.437 23.6395C42.0612 24.0162 41.6676 24.3579 41.25 24.6875C41.193 24.7332 41.193 24.7332 41.1348 24.7799C40.225 25.5069 39.2417 26.101 38.2336 26.6795C37.249 27.2447 36.2859 27.8193 35.375 28.5C35.3347 28.5301 35.2945 28.5602 35.253 28.5912C34.9971 28.7841 34.7469 28.9832 34.5 29.1875C34.4628 29.2183 34.4255 29.2491 34.3871 29.2809C33.6036 29.9341 32.825 30.6266 32.2197 31.4526C32.125 31.5625 32.125 31.5625 31.9375 31.625C31.9203 31.5881 31.9032 31.5512 31.8855 31.5132C31.7695 31.2935 31.6067 31.1174 31.4453 30.9297C31.4122 30.8901 31.3791 30.8506 31.345 30.8098C31.3125 30.7719 31.28 30.7339 31.2466 30.6948C31.2173 30.6604 31.1879 30.626 31.1577 30.5905C31.0513 30.4893 30.9436 30.4394 30.8125 30.375C30.7693 30.2925 30.7277 30.209 30.6875 30.125C30.4915 29.9242 30.2749 29.7456 30.0625 29.5625C30.0023 29.5094 29.9421 29.4563 29.8801 29.4016C28.6812 28.3541 27.333 27.5229 25.9526 26.7401C24.4715 25.8997 22.9672 24.9679 21.7856 23.7253C21.6889 23.6264 21.5882 23.5398 21.4805 23.4531C21.3335 23.3301 21.2377 23.2147 21.125 23.0625C21.0837 23.0625 21.0425 23.0625 21 23.0625C20.9834 23.0253 20.9668 22.9881 20.9497 22.9497C20.8728 22.8085 20.797 22.7258 20.6797 22.6172C20.3554 22.3023 20.0848 21.9452 19.813 21.585C19.7742 21.5337 19.7353 21.4825 19.6953 21.4297C19.6607 21.3831 19.626 21.3366 19.5903 21.2886C19.5605 21.2552 19.5307 21.2219 19.5 21.1875C19.4587 21.1875 19.4175 21.1875 19.375 21.1875Z" fill="#FDFDFD"/>
<path d="M19.375 21.1875C19.5836 21.2851 19.6873 21.3717 19.8242 21.5586C20.3041 22.1992 20.3041 22.1992 20.8476 22.7852C21 22.9375 21 22.9375 21 23.0625C21.0522 23.0818 21.0522 23.0818 21.1054 23.1016C21.2657 23.1969 21.356 23.3119 21.4709 23.4565C21.608 23.6152 21.7653 23.746 21.9248 23.8816C22.0666 24.0036 22.2028 24.1304 22.3398 24.2578C23.5416 25.3398 24.9144 26.1403 26.3125 26.9375C27.6961 27.7274 28.987 28.6389 30.1875 29.6875C30.2189 29.7147 30.2504 29.7419 30.2829 29.77C30.6768 30.1107 30.6768 30.1107 30.8125 30.25C30.8125 30.2913 30.8125 30.3325 30.8125 30.375C30.8473 30.3888 30.8821 30.4026 30.9179 30.4167C31.1088 30.5267 31.2289 30.6675 31.375 30.832C31.4278 30.8911 31.4807 30.9501 31.5351 31.011C31.9375 31.4772 31.9375 31.4772 31.9375 31.625C32.1807 31.4952 32.3232 31.3641 32.4882 31.1445C33.0725 30.41 33.761 29.7636 34.5 29.1875C34.5682 29.1311 34.6363 29.0746 34.7043 29.0178C35.9958 27.947 37.4629 27.1086 38.9218 26.2891C40.9892 25.1143 42.9804 23.4329 44.375 21.5C44.5087 21.321 44.5087 21.321 44.625 21.1875C44.6662 21.1875 44.7075 21.1875 44.75 21.1875C45.0405 29.3644 45.0405 29.3644 44.125 32.625C44.1066 32.6944 44.0882 32.7637 44.0693 32.8352C43.4552 35.0079 41.7629 36.9048 40 38.25C39.9189 38.3133 39.838 38.3766 39.757 38.4399C39.204 38.8704 38.6392 39.2788 38.0574 39.6693C37.9413 39.7474 37.8258 39.8262 37.7104 39.9053C37.0732 40.3391 36.4147 40.7351 35.75 41.125C35.6982 41.1555 35.6465 41.1859 35.5932 41.2173C34.9185 41.6134 34.2333 41.9873 33.539 42.3477C33.4673 42.3849 33.3956 42.4222 33.3217 42.4605C33.1318 42.5584 32.9411 42.6545 32.75 42.75C32.7082 42.772 32.6664 42.794 32.6234 42.8166C32.3329 42.9594 32.0659 42.9922 31.75 42.9375C31.5065 42.8505 31.2826 42.7347 31.0546 42.6133C30.9568 42.5627 30.9568 42.5627 30.857 42.5111C30.2246 42.1811 29.6024 41.833 28.9854 41.4751C28.8205 41.3797 28.6549 41.2855 28.4892 41.1914C27.0412 40.3614 25.6044 39.434 24.3125 38.375C24.2768 38.346 24.2412 38.317 24.2045 38.2872C23.68 37.8582 23.1794 37.4033 22.6875 36.9375C22.6405 36.8932 22.5935 36.8489 22.5451 36.8032C21.0775 35.3792 20.1897 33.6026 19.75 31.625C19.732 31.5464 19.714 31.4677 19.6955 31.3867C19.3761 29.8509 19.3021 28.2508 19.3042 26.6855C19.3041 26.5726 19.3041 26.4597 19.304 26.3468C19.3039 26.1113 19.304 25.8757 19.3043 25.6402C19.3047 25.3428 19.3045 25.0453 19.3041 24.7479C19.3029 23.5597 19.3031 22.374 19.375 21.1875ZM21.9375 26.25C21.2707 26.939 21.1522 28.0528 21.1667 28.9637C21.2117 30.4337 21.7373 31.726 22.778 32.78C23.777 33.7162 24.9616 34.1115 26.3093 34.0823C27.3866 34.0338 28.5603 33.5417 29.3085 32.7617C29.6829 32.3176 29.8623 31.8808 29.8359 31.2959C29.7668 30.792 29.5769 30.4656 29.1875 30.1423C29.0608 30.0614 28.9594 30.0266 28.8125 30C28.7859 30.0348 28.7594 30.0696 28.7321 30.1055C28.6143 30.2588 28.495 30.4109 28.375 30.5625C28.3397 30.6072 28.3045 30.6519 28.2683 30.698C27.8655 31.1856 27.3823 31.5231 26.75 31.625C25.9896 31.6877 25.4213 31.6087 24.7968 31.1445C24.1948 30.634 23.8565 29.9026 23.75 29.125C23.7048 28.5305 23.8129 28.0296 24.0747 27.4966C24.1369 27.3681 24.1369 27.3681 24.125 27.1875C24.0494 27.1565 23.9738 27.1255 23.896 27.0935C23.3271 26.8581 22.77 26.6134 22.2243 26.3281C22.0736 26.2409 22.0736 26.2409 21.9375 26.25ZM41.7578 26.3916C41.6653 26.4364 41.6653 26.4364 41.571 26.4822C41.5063 26.5138 41.4416 26.5455 41.375 26.5781C40.9226 26.7994 40.4707 27.0081 40 27.1875C40.0415 27.4085 40.0978 27.5983 40.1875 27.8047C40.479 28.5208 40.425 29.274 40.1875 30C39.8361 30.7549 39.3021 31.2941 38.5195 31.5859C37.8078 31.7242 37.1088 31.6675 36.4848 31.2903C36.1018 31.0207 35.8223 30.6955 35.5937 30.2891C35.4859 30.1132 35.4508 30.0689 35.2578 29.9766C34.9608 30.0122 34.8148 30.1507 34.625 30.375C34.3017 30.8266 34.2414 31.2675 34.3125 31.8125C34.5014 32.6007 35.0984 33.0748 35.7553 33.492C36.7144 34.0571 37.9941 34.2497 39.082 33.9888C40.4131 33.5825 41.5612 32.8928 42.2507 31.6346C42.8801 30.4096 43.2237 28.9038 42.8115 27.5486C42.7912 27.4913 42.7709 27.434 42.75 27.375C42.7258 27.3042 42.7016 27.2334 42.6767 27.1604C42.5517 26.8142 42.441 26.5237 42.1875 26.25C42.0165 26.25 41.9113 26.3164 41.7578 26.3916ZM30.1875 33.5625C30.1983 33.9404 30.3924 34.2724 30.5546 34.6055C30.5852 34.6686 30.6157 34.7318 30.6471 34.7969C31.0437 35.6067 31.4938 36.3791 32 37.125C32.2014 37.0406 32.2915 36.9661 32.3984 36.7764C32.4248 36.7302 32.4512 36.6841 32.4783 36.6366C32.5061 36.5864 32.5339 36.5361 32.5625 36.4844C32.5919 36.4323 32.6213 36.3801 32.6516 36.3264C32.7476 36.1555 32.8426 35.984 32.9375 35.8125C33.0051 35.6916 33.0727 35.5708 33.1403 35.45C33.2069 35.33 33.2734 35.2099 33.3398 35.0898C33.3863 35.0064 33.3863 35.0064 33.4337 34.9212C33.8191 34.2481 33.8191 34.2481 33.9375 33.5C33.7761 33.4177 33.6147 33.3357 33.4531 33.2539C33.4075 33.2306 33.3619 33.2073 33.3149 33.1832C33.2706 33.1609 33.2263 33.1385 33.1806 33.1155C33.14 33.0949 33.0994 33.0742 33.0576 33.053C32.2136 32.6808 30.8388 32.9112 30.1875 33.5625Z" fill="#3462C4"/>
<path d="M42.1999 26.297C42.6548 26.6118 42.7811 27.4525 42.9122 27.9546C43.1259 29.3892 42.7914 30.9246 41.9429 32.1038C41.1551 33.1121 40.1316 33.813 38.8504 34.0371C37.4915 34.1902 36.2694 33.9192 35.1876 33.0625C35.1503 33.0355 35.113 33.0085 35.0745 32.9807C34.6892 32.6915 34.439 32.2716 34.3126 31.8125C34.247 31.2687 34.3028 30.8252 34.6251 30.375C34.7554 30.221 34.8767 30.0826 35.0626 30C35.2491 30.0005 35.2491 30.0005 35.4376 30.0625C35.5638 30.2151 35.5638 30.2151 35.6758 30.4102C36.0551 31.0166 36.4957 31.3808 37.1761 31.5989C37.8878 31.7351 38.5925 31.6349 39.1993 31.2422C39.8134 30.783 40.2332 30.1018 40.3577 29.344C40.4319 28.6746 40.3174 28.1242 40.0504 27.5103C40.0001 27.375 40.0001 27.375 40.0001 27.1875C40.0403 27.1702 40.0806 27.1529 40.1221 27.1351C40.3081 27.0551 40.4939 26.9748 40.6798 26.8945C40.7431 26.8673 40.8064 26.8401 40.8716 26.8121C41.2343 26.6552 41.5844 26.49 41.9281 26.2945C42.0626 26.25 42.0626 26.25 42.1999 26.297Z" fill="#FBFCFD"/>
<path d="M21.9375 26.25C22.1493 26.3331 22.357 26.4221 22.5637 26.5173C22.6224 26.5443 22.6812 26.5712 22.7418 26.599C22.8637 26.6551 22.9856 26.7112 23.1075 26.7675C23.4428 26.921 23.7777 27.063 24.125 27.1875C24.0869 27.4098 24.0264 27.6016 23.9375 27.8086C23.8426 28.042 23.771 28.247 23.75 28.5C23.744 28.5637 23.744 28.5637 23.738 28.6287C23.697 29.4333 23.9918 30.2283 24.4843 30.8555C24.7061 31.1006 24.964 31.2745 25.25 31.4375C25.2869 31.4589 25.3239 31.4804 25.362 31.5024C25.8568 31.7362 26.5725 31.6907 27.0898 31.5547C27.8694 31.2726 28.3433 30.6521 28.8125 30C29.2078 30.0771 29.4023 30.3084 29.625 30.625C29.8651 31.0403 29.8808 31.512 29.7758 31.9734C29.5076 32.7572 28.8512 33.2347 28.135 33.5874C26.9211 34.1251 25.6944 34.2626 24.435 33.8062C23.169 33.3093 22.2091 32.4125 21.6452 31.1702C21.066 29.8241 20.9902 28.3161 21.5 26.9375C21.6161 26.6744 21.7338 26.4536 21.9375 26.25Z" fill="#FCFCFD"/>
<path d="M33.9375 33.5C33.9084 33.8617 33.8328 34.1358 33.6601 34.457C33.6381 34.4993 33.6161 34.5416 33.5935 34.5852C33.546 34.6761 33.4983 34.7669 33.4502 34.8575C33.373 35.0037 33.2977 35.1508 33.2226 35.2981C32.9787 35.774 32.7273 36.2446 32.4453 36.6992C32.423 36.7364 32.4007 36.7735 32.3777 36.8118C32.313 36.9128 32.313 36.9128 32.1875 37.0625C32.105 37.0625 32.0225 37.0625 31.9375 37.0625C31.8394 36.9355 31.7647 36.819 31.6875 36.6797C31.6638 36.6385 31.6401 36.5973 31.6157 36.5549C31.5343 36.4122 31.4546 36.2687 31.375 36.125C31.3446 36.0708 31.3142 36.0166 31.2829 35.9608C30.9609 35.3858 30.6434 34.8077 30.3555 34.2148C30.3209 34.1439 30.2863 34.0729 30.2507 33.9998C30.1815 33.7947 30.1713 33.7006 30.25 33.5C31.2343 32.5508 32.9122 32.8562 33.9375 33.5Z" fill="#FBFCFD"/>
</svg>
