<svg width="64" height="64" viewBox="0 0 64 64" fill="none" xmlns="http://www.w3.org/2000/svg">
<path fill-rule="evenodd" clip-rule="evenodd" d="M24.123 0.283713C19.8713 0.647569 19.3837 0.711804 14.6292 1.53471C7.44866 2.77738 4.01188 3.81945 1.30307 5.57531C-0.0860352 6.47568 0.00519042 5.69573 0.000193658 16.7261C-0.00437482 26.7196 0.0678627 28.4733 0.649201 32.4778C1.16972 36.0638 1.97663 38.663 3.42512 41.4195C6.09097 46.4922 12.0668 52.0156 21.2677 57.9117C24.9579 60.2763 31.2156 63.8796 31.8203 63.9879C32.4097 64.0935 33.6203 63.5298 37.1737 61.495C42.4791 58.4569 47.4591 55.124 51.3911 51.9797C59.2624 45.6853 62.5105 40.3657 63.6873 31.8418C63.8754 30.4793 63.9314 28.4216 63.9817 21.022C64.051 10.8133 63.9275 6.64874 63.5434 6.24315C62.9823 5.651 59.2723 4.12698 56.5893 3.38658C55.7718 3.16088 54.4284 2.7887 53.6039 2.55945C50.1063 1.58667 45.813 0.823225 41.1834 0.350812C39.0371 0.131653 37.1897 0.0551452 33.1172 0.0164139C28.4632 -0.0279089 27.3935 0.003866 24.123 0.283713ZM3.67139 9.60037C3.87697 9.80657 4.35481 10.3539 4.73313 10.8164C6.40962 12.8669 9.11801 15.4596 11.3456 17.1466C12.7188 18.1866 15.5241 19.9217 18.2697 21.4291C21.1619 23.0171 23.5807 24.5392 25.6136 26.0507C27.3886 27.3704 30.8945 30.5921 31.49 31.4506L31.9125 32.0599L32.7978 31.1096C36.4086 27.2335 39.8905 24.6574 46.2523 21.1555C47.5867 20.421 49.3531 19.3926 50.1776 18.8701C53.4735 16.7816 56.8912 13.7973 59.4149 10.8043C60.1056 9.98509 60.7416 9.29256 60.8283 9.26542C61.0171 9.2061 61.1048 10.7511 61.3262 18.0428C61.5632 25.8479 61.3555 28.1032 59.9521 32.9627C58.9773 36.3385 58.5383 37.3324 57.0643 39.5012C55.9664 41.1165 54.8918 42.3339 53.0856 44.0084C49.1126 47.6917 41.3908 52.6049 34.4182 55.8862C32.0767 56.9881 31.7835 56.984 29.4376 55.8154C23.3268 52.7716 17.2986 49.1152 13.7726 46.314C11.8777 44.8085 9.02178 42.0631 8.00658 40.771C5.62541 37.7402 4.03715 33.6781 3.33075 28.8123C3.06735 26.9988 3.02295 25.8779 2.96199 19.5219C2.89603 12.6262 2.97312 9.22533 3.19541 9.22533C3.25137 9.22533 3.46567 9.39416 3.67139 9.60037ZM8.53296 20.7161C7.63368 21.9818 7.1944 23.6878 7.1944 25.9142C7.1944 31.0766 10.1189 35.2254 14.8774 36.8133C16.6092 37.3913 18.9928 37.4915 20.7739 37.0613C22.2362 36.7081 23.5207 36.1466 24.6895 35.3499C26.2271 34.3018 26.8986 33.1914 26.9038 31.6892C26.9085 30.2875 26.2656 29.1219 25.2284 28.6517L24.7064 28.4151L24.2071 29.0144C23.2886 30.1171 21.9885 31.2596 21.2677 31.5976C20.6356 31.8939 20.3662 31.9322 18.9121 31.9322C17.4606 31.9322 17.1876 31.8936 16.5565 31.5988C13.8238 30.3224 12.3503 26.681 13.4354 23.8859C14.0328 22.3469 14.0582 22.4011 12.4163 21.7169C11.6311 21.3897 10.5711 20.9308 10.0607 20.697C9.5503 20.4634 9.06847 20.2725 8.98995 20.273C8.91143 20.2734 8.70585 20.4728 8.53296 20.7161ZM54.2235 20.5357C53.9756 20.6802 53.0119 21.1177 52.0821 21.5079C51.1524 21.8982 50.3303 22.2711 50.2554 22.3364C50.1703 22.4106 50.2714 22.8928 50.5249 23.6212C50.9963 24.976 51.136 26.3339 50.908 27.3489C50.5071 29.1346 49.2473 30.7273 47.6361 31.4857C46.8126 31.8733 46.5134 31.9385 45.3693 31.9793C43.3033 32.0531 41.9947 31.4687 40.7652 29.923C40.451 29.5279 40.0583 29.0358 39.8925 28.8296C39.2805 28.0677 38.2483 28.5173 37.554 29.8484C37.2548 30.422 37.1866 30.7463 37.1891 31.5839C37.1938 33.1309 37.7418 34.087 39.2773 35.2278C41.2132 36.6661 43.2592 37.3204 45.8104 37.3171C47.5971 37.3149 48.7464 37.0999 50.0962 36.5151C53.8866 34.8734 56.35 31.4992 56.8997 27.196C57.0844 25.7508 56.9983 24.6258 56.5843 23.0726C56.2095 21.6664 55.9591 21.1078 55.497 20.647C55.052 20.2032 54.828 20.1836 54.2235 20.5357ZM30.3333 34.9085C28.8956 35.2305 27.7635 35.9651 27.7635 36.576C27.7635 36.9634 29.6633 40.5842 30.8725 42.5015C31.948 44.2068 32.1625 44.2522 32.9966 42.9502C34.1862 41.0931 36.0165 37.6417 36.1881 36.9316C36.4085 36.0195 36.3702 35.9778 34.72 35.3351C33.27 34.7704 31.6527 34.6132 30.3333 34.9085Z" fill="#FDFDFD"/>
</svg>
